<svg width="106" height="63" viewBox="0 0 106 63" fill="none" xmlns="http://www.w3.org/2000/svg">
<rect width="106" height="63" fill="white"/>
<path d="M30.322 56.75C29.034 56.75 27.788 56.218 26.584 55.154C25.408 54.09 24.414 52.55 23.602 50.534C22.818 48.518 22.356 46.082 22.216 43.226C21.348 43.31 20.55 43.352 19.822 43.352C18.198 43.352 17.008 43.142 16.252 42.722C15.524 42.302 15.16 41.756 15.16 41.084C15.16 40.412 15.482 39.67 16.126 38.858C16.77 38.046 17.666 37.234 18.814 36.422C19.962 35.582 21.306 34.826 22.846 34.154C23.378 31.298 24.232 28.218 25.408 24.914C26.612 21.582 28.222 18.054 30.238 14.33C30.434 13.966 30.728 13.784 31.12 13.784C31.372 13.784 31.596 13.868 31.792 14.036C31.988 14.204 32.086 14.428 32.086 14.708C32.086 14.848 32.044 15.03 31.96 15.254C30.168 18.866 28.67 22.184 27.466 25.208C26.29 28.204 25.366 30.948 24.694 33.44C25.954 32.964 27.298 32.572 28.726 32.264C30.154 31.956 31.61 31.774 33.094 31.718C33.486 31.718 33.682 31.774 33.682 31.886C33.682 31.998 33.542 32.11 33.262 32.222C33.01 32.306 32.576 32.362 31.96 32.39C30.588 32.474 29.272 32.67 28.012 32.978C26.78 33.258 25.618 33.608 24.526 34.028C24.106 35.652 23.784 37.164 23.56 38.564C23.336 39.936 23.196 41.21 23.14 42.386C26.024 41.77 28.642 40.874 30.994 39.698C33.374 38.494 35.474 37.108 37.294 35.54C39.114 33.972 40.64 32.348 41.872 30.668C42.656 29.604 43.216 28.666 43.552 27.854C43.916 27.014 44.098 26.286 44.098 25.67C44.098 24.774 43.818 24.074 43.258 23.57C42.698 23.038 41.956 22.66 41.032 22.436C40.108 22.184 39.1 22.058 38.008 22.058C36.86 22.058 35.698 22.17 34.522 22.394C33.346 22.59 32.282 22.87 31.33 23.234C31.106 23.29 30.952 23.318 30.868 23.318C30.504 23.318 30.322 23.192 30.322 22.94C30.322 22.688 30.476 22.492 30.784 22.352C34.228 20.392 36.678 18.614 38.134 17.018C39.59 15.422 40.318 14.078 40.318 12.986C40.318 12.034 39.87 11.306 38.974 10.802C38.106 10.27 36.958 10.004 35.53 10.004C34.41 10.004 33.15 10.186 31.75 10.55C30.35 10.914 28.908 11.502 27.424 12.314C26.192 12.986 25.072 13.784 24.064 14.708C23.084 15.604 22.244 16.542 21.544 17.522C20.872 18.474 20.368 19.384 20.032 20.252C19.696 21.092 19.57 21.806 19.654 22.394C19.654 22.45 19.654 22.52 19.654 22.604C19.682 22.66 19.696 22.716 19.696 22.772C19.696 23.472 19.486 23.822 19.066 23.822C18.87 23.822 18.66 23.682 18.436 23.402C18.24 23.122 18.142 22.702 18.142 22.142C18.142 21.302 18.394 20.406 18.898 19.454C19.43 18.502 20.13 17.55 20.998 16.598C21.894 15.618 22.888 14.708 23.98 13.868C25.072 13 26.206 12.258 27.382 11.642C28.894 10.83 30.378 10.228 31.834 9.836C33.318 9.444 34.676 9.248 35.908 9.248C37.616 9.248 39.002 9.584 40.066 10.256C41.13 10.928 41.662 11.866 41.662 13.07C41.662 14.19 41.116 15.492 40.024 16.976C38.932 18.46 37.098 20.098 34.522 21.89C35.39 21.75 36.202 21.652 36.958 21.596C37.714 21.512 38.414 21.47 39.058 21.47C41.466 21.47 43.202 21.876 44.266 22.688C45.358 23.472 45.904 24.494 45.904 25.754C45.904 26.678 45.638 27.686 45.106 28.778C44.602 29.842 43.888 30.948 42.964 32.096C41.62 33.748 39.926 35.344 37.882 36.884C35.866 38.424 33.598 39.754 31.078 40.874C28.586 41.994 25.926 42.75 23.098 43.142C23.042 45.634 23.266 47.692 23.77 49.316C24.302 50.94 24.974 52.2 25.786 53.096C26.598 54.02 27.41 54.664 28.222 55.028C29.034 55.42 29.706 55.616 30.238 55.616C30.63 55.616 30.896 55.546 31.036 55.406C31.148 55.266 31.316 55.196 31.54 55.196C31.764 55.196 31.974 55.28 32.17 55.448C32.366 55.616 32.464 55.798 32.464 55.994C32.464 56.162 32.366 56.288 32.17 56.372C31.554 56.624 30.938 56.75 30.322 56.75ZM19.99 42.806C20.298 42.806 20.634 42.778 20.998 42.722C21.362 42.694 21.754 42.652 22.174 42.596C22.146 41.42 22.174 40.188 22.258 38.9C22.342 37.612 22.496 36.268 22.72 34.868C20.928 35.792 19.514 36.828 18.478 37.976C17.442 39.096 16.924 40.09 16.924 40.958C16.924 41.49 17.176 41.924 17.68 42.26C18.184 42.624 18.954 42.806 19.99 42.806ZM51.9632 43.1C51.0672 43.1 50.3812 42.68 49.9052 41.84C49.4292 41.028 49.1912 40.132 49.1912 39.152C49.1912 38.228 49.3452 37.262 49.6532 36.254C49.9612 35.246 50.3392 34.252 50.7872 33.272C51.2632 32.292 51.7532 31.396 52.2572 30.584C51.7532 30.78 51.2772 30.878 50.8292 30.878C50.6052 30.878 50.4092 30.85 50.2412 30.794C50.0732 30.738 49.9332 30.696 49.8212 30.668C49.6812 31.004 49.4292 31.564 49.0652 32.348C48.7292 33.132 48.3652 33.958 47.9732 34.826C47.6092 35.666 47.2872 36.38 47.0072 36.968C46.5592 37.92 46.1672 38.396 45.8312 38.396C45.6632 38.396 45.5792 38.284 45.5792 38.06C45.5792 37.892 45.6492 37.668 45.7892 37.388C46.4332 36.184 47.0352 34.994 47.5952 33.818C48.1832 32.642 48.7152 31.508 49.1912 30.416C49.1352 30.276 49.0792 30.094 49.0232 29.87C48.9672 29.618 48.9392 29.352 48.9392 29.072C48.9392 28.764 48.9672 28.442 49.0232 28.106C49.1072 27.742 49.2192 27.392 49.3592 27.056C49.4432 26.86 49.5972 26.58 49.8212 26.216C50.0452 25.824 50.2972 25.474 50.5772 25.166C50.8572 24.83 51.1232 24.662 51.3752 24.662C51.8512 24.662 52.0892 24.914 52.0892 25.418C52.0892 25.894 51.9352 26.44 51.6272 27.056C51.3472 27.672 51.0532 28.246 50.7452 28.778C50.4372 29.282 50.2832 29.66 50.2832 29.912C50.2832 30.136 50.3952 30.248 50.6192 30.248C50.9272 30.248 51.3052 30.094 51.7532 29.786C52.2292 29.45 52.6072 29.142 52.8872 28.862C53.0272 28.722 53.2512 28.512 53.5592 28.232C53.8672 27.924 54.1612 27.77 54.4412 27.77C54.7212 27.77 54.9032 27.854 54.9872 28.022C55.0992 28.19 55.1552 28.386 55.1552 28.61C55.1552 28.862 55.0432 29.184 54.8192 29.576C54.5952 29.94 54.3292 30.304 54.0212 30.668C53.7412 31.032 53.5032 31.34 53.3072 31.592C52.9152 32.18 52.4672 32.922 51.9632 33.818C51.4592 34.714 51.0252 35.68 50.6612 36.716C50.2972 37.724 50.1152 38.69 50.1152 39.614C50.1152 40.23 50.2692 40.874 50.5772 41.546C50.8852 42.218 51.3052 42.554 51.8372 42.554C52.3132 42.554 52.8172 42.302 53.3492 41.798C53.9092 41.294 54.4272 40.692 54.9032 39.992C55.4072 39.292 55.8412 38.62 56.2052 37.976C56.5972 37.332 56.8632 36.884 57.0032 36.632C57.0592 36.492 57.1572 36.324 57.2972 36.128C57.4372 35.904 57.6052 35.792 57.8012 35.792C57.9692 35.792 58.0532 35.876 58.0532 36.044C58.0532 36.184 58.0112 36.352 57.9272 36.548C57.8712 36.716 57.8152 36.87 57.7592 37.01C57.5072 37.598 57.1992 38.214 56.8352 38.858C56.4712 39.502 56.2192 39.936 56.0792 40.16C55.6872 40.804 55.0992 41.448 54.3152 42.092C53.5592 42.764 52.7752 43.1 51.9632 43.1ZM61.5743 26.972C61.3223 26.972 61.1403 26.846 61.0283 26.594C60.9443 26.314 60.9023 26.118 60.9023 26.006C60.9023 25.558 61.0283 25.138 61.2803 24.746C61.5603 24.326 61.8683 24.102 62.2043 24.074H62.3303C62.6663 24.074 62.8903 24.158 63.0023 24.326C63.1423 24.466 63.2123 24.648 63.2123 24.872C63.2123 25.292 63.0303 25.754 62.6663 26.258C62.3023 26.734 61.9383 26.972 61.5743 26.972ZM59.4323 42.008C58.4803 42.008 57.8363 41.644 57.5003 40.916C57.1643 40.188 56.9963 39.348 56.9963 38.396C56.9963 37.444 57.0943 36.45 57.2903 35.414C57.5143 34.35 57.7523 33.384 58.0043 32.516C58.2843 31.648 58.4943 31.032 58.6343 30.668C58.9423 30.024 59.2503 29.478 59.5583 29.03C59.8663 28.554 60.2023 28.316 60.5663 28.316C60.8183 28.316 61.0003 28.414 61.1123 28.61C61.2523 28.778 61.3223 29.002 61.3223 29.282C61.3223 29.842 61.1683 30.416 60.8603 31.004C60.5523 31.564 60.2723 32.096 60.0203 32.6C59.4603 33.748 59.0123 34.77 58.6763 35.666C58.3683 36.562 58.2143 37.682 58.2143 39.026C58.2143 39.894 58.2983 40.524 58.4663 40.916C58.6623 41.308 58.9283 41.504 59.2643 41.504C59.7123 41.504 60.2303 41.252 60.8183 40.748C61.4063 40.216 62.0083 39.516 62.6243 38.648C63.2403 37.78 63.7863 36.842 64.2623 35.834C64.5703 35.19 64.8083 34.868 64.9763 34.868C65.0883 34.868 65.1443 34.98 65.1443 35.204C65.1443 35.512 65.0183 35.96 64.7663 36.548C64.5423 37.108 64.2623 37.682 63.9263 38.27C63.6183 38.858 63.3243 39.32 63.0443 39.656C62.5683 40.272 62.0223 40.818 61.4063 41.294C60.7903 41.77 60.1323 42.008 59.4323 42.008ZM70.4809 47.678C70.1169 47.678 69.7669 47.538 69.4309 47.258C69.1229 46.978 68.8569 46.698 68.6329 46.418C67.7369 45.382 66.9809 44.01 66.3649 42.302C65.7769 40.594 65.3289 38.718 65.0209 36.674C64.7129 34.602 64.5589 32.502 64.5589 30.374C64.5589 28.386 64.6849 26.454 64.9369 24.578C65.2169 22.702 65.6369 20.994 66.1969 19.454C66.7569 17.914 67.4569 16.682 68.2969 15.758C69.3889 14.526 70.4389 13.91 71.4469 13.91C72.0629 13.91 72.5529 14.19 72.9169 14.75C73.3089 15.282 73.5049 16.136 73.5049 17.312C73.5049 18.432 73.2809 19.86 72.8329 21.596C72.4129 23.304 71.6849 25.348 70.6489 27.728C70.2849 28.512 69.8929 29.296 69.4729 30.08C69.0809 30.864 68.6609 31.69 68.2129 32.558C68.0449 32.894 67.9049 33.062 67.7929 33.062C67.7369 33.062 67.7089 33.006 67.7089 32.894C67.7089 32.67 67.8069 32.376 68.0029 32.012C70.5509 27.224 71.8249 22.464 71.8249 17.732C71.8249 15.856 71.4329 14.918 70.6489 14.918C70.0889 14.918 69.4309 15.464 68.6749 16.556C67.6389 18.096 66.9249 19.93 66.5329 22.058C66.1409 24.158 65.9449 26.286 65.9449 28.442C65.9449 30.066 66.0149 31.648 66.1549 33.188C66.2949 34.7 66.4629 36.072 66.6589 37.304C66.7429 37.836 66.8689 38.55 67.0369 39.446C67.2049 40.342 67.4289 41.28 67.7089 42.26C67.9889 43.268 68.2969 44.178 68.6329 44.99C68.9969 45.83 69.3889 46.432 69.8089 46.796C69.9209 46.88 70.0329 46.964 70.1449 47.048C70.2849 47.16 70.4389 47.23 70.6069 47.258C70.8589 47.258 70.9849 47.328 70.9849 47.468C70.9849 47.608 70.8169 47.678 70.4809 47.678ZM77.5356 47.678C77.1716 47.678 76.8216 47.538 76.4856 47.258C76.1776 46.978 75.9116 46.698 75.6876 46.418C74.7916 45.382 74.0356 44.01 73.4196 42.302C72.8316 40.594 72.3836 38.718 72.0756 36.674C71.7676 34.602 71.6136 32.502 71.6136 30.374C71.6136 28.386 71.7396 26.454 71.9916 24.578C72.2716 22.702 72.6916 20.994 73.2516 19.454C73.8116 17.914 74.5116 16.682 75.3516 15.758C76.4436 14.526 77.4936 13.91 78.5016 13.91C79.1176 13.91 79.6076 14.19 79.9716 14.75C80.3636 15.282 80.5596 16.136 80.5596 17.312C80.5596 18.432 80.3356 19.86 79.8876 21.596C79.4676 23.304 78.7396 25.348 77.7036 27.728C77.3396 28.512 76.9476 29.296 76.5276 30.08C76.1356 30.864 75.7156 31.69 75.2676 32.558C75.0996 32.894 74.9596 33.062 74.8476 33.062C74.7916 33.062 74.7636 33.006 74.7636 32.894C74.7636 32.67 74.8616 32.376 75.0576 32.012C77.6056 27.224 78.8796 22.464 78.8796 17.732C78.8796 15.856 78.4876 14.918 77.7036 14.918C77.1436 14.918 76.4856 15.464 75.7296 16.556C74.6936 18.096 73.9796 19.93 73.5876 22.058C73.1956 24.158 72.9996 26.286 72.9996 28.442C72.9996 30.066 73.0696 31.648 73.2096 33.188C73.3496 34.7 73.5176 36.072 73.7136 37.304C73.7976 37.836 73.9236 38.55 74.0916 39.446C74.2596 40.342 74.4836 41.28 74.7636 42.26C75.0436 43.268 75.3516 44.178 75.6876 44.99C76.0516 45.83 76.4436 46.432 76.8636 46.796C76.9756 46.88 77.0876 46.964 77.1996 47.048C77.3396 47.16 77.4936 47.23 77.6616 47.258C77.9136 47.258 78.0396 47.328 78.0396 47.468C78.0396 47.608 77.8716 47.678 77.5356 47.678ZM79.6343 40.664C79.1303 40.664 78.7663 40.454 78.5423 40.034C78.3183 39.586 78.2063 39.068 78.2063 38.48C78.2063 37.724 78.3323 36.842 78.5843 35.834C78.8643 34.826 79.2283 33.79 79.6763 32.726C80.1243 31.634 80.6283 30.64 81.1883 29.744C81.7763 28.82 82.3923 28.078 83.0363 27.518C83.6803 26.93 84.3103 26.636 84.9263 26.636C85.4863 26.636 85.9623 26.888 86.3543 27.392C86.7743 27.868 86.9843 28.414 86.9843 29.03C86.9843 29.394 86.9283 29.702 86.8163 29.954C86.7043 30.178 86.5783 30.29 86.4383 30.29C86.3263 30.29 86.2283 30.206 86.1443 30.038C85.8643 29.394 85.5563 28.932 85.2203 28.652C84.9123 28.372 84.5903 28.232 84.2543 28.232C83.6943 28.232 83.1343 28.554 82.5743 29.198C82.0423 29.814 81.6083 30.528 81.2723 31.34C80.9923 31.956 80.7263 32.698 80.4743 33.566C80.2503 34.406 80.0543 35.246 79.8863 36.086C79.7463 36.898 79.6763 37.57 79.6763 38.102C79.6763 39.054 79.9003 39.53 80.3483 39.53C80.9083 39.53 81.6223 38.914 82.4903 37.682C83.1343 36.786 83.7083 35.75 84.2123 34.574C84.7443 33.398 85.1923 32.376 85.5563 31.508C85.6963 31.228 85.8503 31.046 86.0183 30.962C86.1863 30.878 86.3403 30.836 86.4803 30.836C86.8163 30.836 87.0263 30.976 87.1103 31.256C87.2223 31.536 87.2783 31.774 87.2783 31.97C87.2783 32.698 87.2083 33.356 87.0683 33.944C86.9283 34.504 86.8583 35.19 86.8583 36.002C86.8583 36.59 86.9003 37.136 86.9843 37.64C87.0963 38.116 87.2783 38.354 87.5303 38.354C87.8383 38.354 88.2303 37.962 88.7063 37.178C88.8183 36.954 88.9863 36.842 89.2103 36.842C89.4623 36.842 89.5883 36.968 89.5883 37.22C89.5883 37.584 89.3363 37.976 88.8323 38.396C88.3283 38.788 87.8243 38.984 87.3203 38.984C86.6483 38.984 86.1723 38.704 85.8923 38.144C85.4163 37.22 85.1783 36.394 85.1783 35.666C85.1783 34.91 85.1643 34.392 85.1363 34.112C84.9963 34.448 84.7303 34.98 84.3383 35.708C83.9463 36.408 83.4843 37.15 82.9523 37.934C82.4203 38.69 81.8603 39.334 81.2723 39.866C80.6843 40.398 80.1383 40.664 79.6343 40.664Z" fill="black"/>
</svg>
