<svg width="75" height="48" viewBox="0 0 75 48" fill="none" xmlns="http://www.w3.org/2000/svg">
<path d="M15.322 47.75C14.034 47.75 12.788 47.218 11.584 46.154C10.408 45.09 9.414 43.55 8.602 41.534C7.818 39.518 7.356 37.082 7.216 34.226C6.348 34.31 5.55 34.352 4.822 34.352C3.198 34.352 2.008 34.142 1.252 33.722C0.524 33.302 0.16 32.756 0.16 32.084C0.16 31.412 0.482 30.67 1.126 29.858C1.77 29.046 2.666 28.234 3.814 27.422C4.962 26.582 6.306 25.826 7.846 25.154C8.378 22.298 9.232 19.218 10.408 15.914C11.612 12.582 13.222 9.054 15.238 5.33C15.434 4.966 15.728 4.784 16.12 4.784C16.372 4.784 16.596 4.868 16.792 5.036C16.988 5.204 17.086 5.428 17.086 5.708C17.086 5.848 17.044 6.03 16.96 6.254C15.168 9.866 13.67 13.184 12.466 16.208C11.29 19.204 10.366 21.948 9.694 24.44C10.954 23.964 12.298 23.572 13.726 23.264C15.154 22.956 16.61 22.774 18.094 22.718C18.486 22.718 18.682 22.774 18.682 22.886C18.682 22.998 18.542 23.11 18.262 23.222C18.01 23.306 17.576 23.362 16.96 23.39C15.588 23.474 14.272 23.67 13.012 23.978C11.78 24.258 10.618 24.608 9.526 25.028C9.106 26.652 8.784 28.164 8.56 29.564C8.336 30.936 8.196 32.21 8.14 33.386C11.024 32.77 13.642 31.874 15.994 30.698C18.374 29.494 20.474 28.108 22.294 26.54C24.114 24.972 25.64 23.348 26.872 21.668C27.656 20.604 28.216 19.666 28.552 18.854C28.916 18.014 29.098 17.286 29.098 16.67C29.098 15.774 28.818 15.074 28.258 14.57C27.698 14.038 26.956 13.66 26.032 13.436C25.108 13.184 24.1 13.058 23.008 13.058C21.86 13.058 20.698 13.17 19.522 13.394C18.346 13.59 17.282 13.87 16.33 14.234C16.106 14.29 15.952 14.318 15.868 14.318C15.504 14.318 15.322 14.192 15.322 13.94C15.322 13.688 15.476 13.492 15.784 13.352C19.228 11.392 21.678 9.614 23.134 8.018C24.59 6.422 25.318 5.078 25.318 3.986C25.318 3.034 24.87 2.306 23.974 1.802C23.106 1.27 21.958 1.004 20.53 1.004C19.41 1.004 18.15 1.186 16.75 1.55C15.35 1.914 13.908 2.502 12.424 3.314C11.192 3.986 10.072 4.784 9.064 5.708C8.084 6.604 7.244 7.542 6.544 8.522C5.872 9.474 5.368 10.384 5.032 11.252C4.696 12.092 4.57 12.806 4.654 13.394C4.654 13.45 4.654 13.52 4.654 13.604C4.682 13.66 4.696 13.716 4.696 13.772C4.696 14.472 4.486 14.822 4.066 14.822C3.87 14.822 3.66 14.682 3.436 14.402C3.24 14.122 3.142 13.702 3.142 13.142C3.142 12.302 3.394 11.406 3.898 10.454C4.43 9.502 5.13 8.55 5.998 7.598C6.894 6.618 7.888 5.708 8.98 4.868C10.072 4 11.206 3.258 12.382 2.642C13.894 1.83 15.378 1.228 16.834 0.835998C18.318 0.443998 19.676 0.247998 20.908 0.247998C22.616 0.247998 24.002 0.583998 25.066 1.256C26.13 1.928 26.662 2.866 26.662 4.07C26.662 5.19 26.116 6.492 25.024 7.976C23.932 9.46 22.098 11.098 19.522 12.89C20.39 12.75 21.202 12.652 21.958 12.596C22.714 12.512 23.414 12.47 24.058 12.47C26.466 12.47 28.202 12.876 29.266 13.688C30.358 14.472 30.904 15.494 30.904 16.754C30.904 17.678 30.638 18.686 30.106 19.778C29.602 20.842 28.888 21.948 27.964 23.096C26.62 24.748 24.926 26.344 22.882 27.884C20.866 29.424 18.598 30.754 16.078 31.874C13.586 32.994 10.926 33.75 8.098 34.142C8.042 36.634 8.266 38.692 8.77 40.316C9.302 41.94 9.974 43.2 10.786 44.096C11.598 45.02 12.41 45.664 13.222 46.028C14.034 46.42 14.706 46.616 15.238 46.616C15.63 46.616 15.896 46.546 16.036 46.406C16.148 46.266 16.316 46.196 16.54 46.196C16.764 46.196 16.974 46.28 17.17 46.448C17.366 46.616 17.464 46.798 17.464 46.994C17.464 47.162 17.366 47.288 17.17 47.372C16.554 47.624 15.938 47.75 15.322 47.75ZM4.99 33.806C5.298 33.806 5.634 33.778 5.998 33.722C6.362 33.694 6.754 33.652 7.174 33.596C7.146 32.42 7.174 31.188 7.258 29.9C7.342 28.612 7.496 27.268 7.72 25.868C5.928 26.792 4.514 27.828 3.478 28.976C2.442 30.096 1.924 31.09 1.924 31.958C1.924 32.49 2.176 32.924 2.68 33.26C3.184 33.624 3.954 33.806 4.99 33.806ZM36.9632 34.1C36.0672 34.1 35.3812 33.68 34.9052 32.84C34.4292 32.028 34.1912 31.132 34.1912 30.152C34.1912 29.228 34.3452 28.262 34.6532 27.254C34.9612 26.246 35.3392 25.252 35.7872 24.272C36.2632 23.292 36.7532 22.396 37.2572 21.584C36.7532 21.78 36.2772 21.878 35.8292 21.878C35.6052 21.878 35.4092 21.85 35.2412 21.794C35.0732 21.738 34.9332 21.696 34.8212 21.668C34.6812 22.004 34.4292 22.564 34.0652 23.348C33.7292 24.132 33.3652 24.958 32.9732 25.826C32.6092 26.666 32.2872 27.38 32.0072 27.968C31.5592 28.92 31.1672 29.396 30.8312 29.396C30.6632 29.396 30.5792 29.284 30.5792 29.06C30.5792 28.892 30.6492 28.668 30.7892 28.388C31.4332 27.184 32.0352 25.994 32.5952 24.818C33.1832 23.642 33.7152 22.508 34.1912 21.416C34.1352 21.276 34.0792 21.094 34.0232 20.87C33.9672 20.618 33.9392 20.352 33.9392 20.072C33.9392 19.764 33.9672 19.442 34.0232 19.106C34.1072 18.742 34.2192 18.392 34.3592 18.056C34.4432 17.86 34.5972 17.58 34.8212 17.216C35.0452 16.824 35.2972 16.474 35.5772 16.166C35.8572 15.83 36.1232 15.662 36.3752 15.662C36.8512 15.662 37.0892 15.914 37.0892 16.418C37.0892 16.894 36.9352 17.44 36.6272 18.056C36.3472 18.672 36.0532 19.246 35.7452 19.778C35.4372 20.282 35.2832 20.66 35.2832 20.912C35.2832 21.136 35.3952 21.248 35.6192 21.248C35.9272 21.248 36.3052 21.094 36.7532 20.786C37.2292 20.45 37.6072 20.142 37.8872 19.862C38.0272 19.722 38.2512 19.512 38.5592 19.232C38.8672 18.924 39.1612 18.77 39.4412 18.77C39.7212 18.77 39.9032 18.854 39.9872 19.022C40.0992 19.19 40.1552 19.386 40.1552 19.61C40.1552 19.862 40.0432 20.184 39.8192 20.576C39.5952 20.94 39.3292 21.304 39.0212 21.668C38.7412 22.032 38.5032 22.34 38.3072 22.592C37.9152 23.18 37.4672 23.922 36.9632 24.818C36.4592 25.714 36.0252 26.68 35.6612 27.716C35.2972 28.724 35.1152 29.69 35.1152 30.614C35.1152 31.23 35.2692 31.874 35.5772 32.546C35.8852 33.218 36.3052 33.554 36.8372 33.554C37.3132 33.554 37.8172 33.302 38.3492 32.798C38.9092 32.294 39.4272 31.692 39.9032 30.992C40.4072 30.292 40.8412 29.62 41.2052 28.976C41.5972 28.332 41.8632 27.884 42.0032 27.632C42.0592 27.492 42.1572 27.324 42.2972 27.128C42.4372 26.904 42.6052 26.792 42.8012 26.792C42.9692 26.792 43.0532 26.876 43.0532 27.044C43.0532 27.184 43.0112 27.352 42.9272 27.548C42.8712 27.716 42.8152 27.87 42.7592 28.01C42.5072 28.598 42.1992 29.214 41.8352 29.858C41.4712 30.502 41.2192 30.936 41.0792 31.16C40.6872 31.804 40.0992 32.448 39.3152 33.092C38.5592 33.764 37.7752 34.1 36.9632 34.1ZM46.5743 17.972C46.3223 17.972 46.1403 17.846 46.0283 17.594C45.9443 17.314 45.9023 17.118 45.9023 17.006C45.9023 16.558 46.0283 16.138 46.2803 15.746C46.5603 15.326 46.8683 15.102 47.2043 15.074H47.3303C47.6663 15.074 47.8903 15.158 48.0023 15.326C48.1423 15.466 48.2123 15.648 48.2123 15.872C48.2123 16.292 48.0303 16.754 47.6663 17.258C47.3023 17.734 46.9383 17.972 46.5743 17.972ZM44.4323 33.008C43.4803 33.008 42.8363 32.644 42.5003 31.916C42.1643 31.188 41.9963 30.348 41.9963 29.396C41.9963 28.444 42.0943 27.45 42.2903 26.414C42.5143 25.35 42.7523 24.384 43.0043 23.516C43.2843 22.648 43.4943 22.032 43.6343 21.668C43.9423 21.024 44.2503 20.478 44.5583 20.03C44.8663 19.554 45.2023 19.316 45.5663 19.316C45.8183 19.316 46.0003 19.414 46.1123 19.61C46.2523 19.778 46.3223 20.002 46.3223 20.282C46.3223 20.842 46.1683 21.416 45.8603 22.004C45.5523 22.564 45.2723 23.096 45.0203 23.6C44.4603 24.748 44.0123 25.77 43.6763 26.666C43.3683 27.562 43.2143 28.682 43.2143 30.026C43.2143 30.894 43.2983 31.524 43.4663 31.916C43.6623 32.308 43.9283 32.504 44.2643 32.504C44.7123 32.504 45.2303 32.252 45.8183 31.748C46.4063 31.216 47.0083 30.516 47.6243 29.648C48.2403 28.78 48.7863 27.842 49.2623 26.834C49.5703 26.19 49.8083 25.868 49.9763 25.868C50.0883 25.868 50.1443 25.98 50.1443 26.204C50.1443 26.512 50.0183 26.96 49.7663 27.548C49.5423 28.108 49.2623 28.682 48.9263 29.27C48.6183 29.858 48.3243 30.32 48.0443 30.656C47.5683 31.272 47.0223 31.818 46.4063 32.294C45.7903 32.77 45.1323 33.008 44.4323 33.008ZM55.4809 38.678C55.1169 38.678 54.7669 38.538 54.4309 38.258C54.1229 37.978 53.8569 37.698 53.6329 37.418C52.7369 36.382 51.9809 35.01 51.3649 33.302C50.7769 31.594 50.3289 29.718 50.0209 27.674C49.7129 25.602 49.5589 23.502 49.5589 21.374C49.5589 19.386 49.6849 17.454 49.9369 15.578C50.2169 13.702 50.6369 11.994 51.1969 10.454C51.7569 8.914 52.4569 7.682 53.2969 6.758C54.3889 5.526 55.4389 4.91 56.4469 4.91C57.0629 4.91 57.5529 5.19 57.9169 5.75C58.3089 6.282 58.5049 7.136 58.5049 8.312C58.5049 9.432 58.2809 10.86 57.8329 12.596C57.4129 14.304 56.6849 16.348 55.6489 18.728C55.2849 19.512 54.8929 20.296 54.4729 21.08C54.0809 21.864 53.6609 22.69 53.2129 23.558C53.0449 23.894 52.9049 24.062 52.7929 24.062C52.7369 24.062 52.7089 24.006 52.7089 23.894C52.7089 23.67 52.8069 23.376 53.0029 23.012C55.5509 18.224 56.8249 13.464 56.8249 8.732C56.8249 6.856 56.4329 5.918 55.6489 5.918C55.0889 5.918 54.4309 6.464 53.6749 7.556C52.6389 9.096 51.9249 10.93 51.5329 13.058C51.1409 15.158 50.9449 17.286 50.9449 19.442C50.9449 21.066 51.0149 22.648 51.1549 24.188C51.2949 25.7 51.4629 27.072 51.6589 28.304C51.7429 28.836 51.8689 29.55 52.0369 30.446C52.2049 31.342 52.4289 32.28 52.7089 33.26C52.9889 34.268 53.2969 35.178 53.6329 35.99C53.9969 36.83 54.3889 37.432 54.8089 37.796C54.9209 37.88 55.0329 37.964 55.1449 38.048C55.2849 38.16 55.4389 38.23 55.6069 38.258C55.8589 38.258 55.9849 38.328 55.9849 38.468C55.9849 38.608 55.8169 38.678 55.4809 38.678ZM62.5356 38.678C62.1716 38.678 61.8216 38.538 61.4856 38.258C61.1776 37.978 60.9116 37.698 60.6876 37.418C59.7916 36.382 59.0356 35.01 58.4196 33.302C57.8316 31.594 57.3836 29.718 57.0756 27.674C56.7676 25.602 56.6136 23.502 56.6136 21.374C56.6136 19.386 56.7396 17.454 56.9916 15.578C57.2716 13.702 57.6916 11.994 58.2516 10.454C58.8116 8.914 59.5116 7.682 60.3516 6.758C61.4436 5.526 62.4936 4.91 63.5016 4.91C64.1176 4.91 64.6076 5.19 64.9716 5.75C65.3636 6.282 65.5596 7.136 65.5596 8.312C65.5596 9.432 65.3356 10.86 64.8876 12.596C64.4676 14.304 63.7396 16.348 62.7036 18.728C62.3396 19.512 61.9476 20.296 61.5276 21.08C61.1356 21.864 60.7156 22.69 60.2676 23.558C60.0996 23.894 59.9596 24.062 59.8476 24.062C59.7916 24.062 59.7636 24.006 59.7636 23.894C59.7636 23.67 59.8616 23.376 60.0576 23.012C62.6056 18.224 63.8796 13.464 63.8796 8.732C63.8796 6.856 63.4876 5.918 62.7036 5.918C62.1436 5.918 61.4856 6.464 60.7296 7.556C59.6936 9.096 58.9796 10.93 58.5876 13.058C58.1956 15.158 57.9996 17.286 57.9996 19.442C57.9996 21.066 58.0696 22.648 58.2096 24.188C58.3496 25.7 58.5176 27.072 58.7136 28.304C58.7976 28.836 58.9236 29.55 59.0916 30.446C59.2596 31.342 59.4836 32.28 59.7636 33.26C60.0436 34.268 60.3516 35.178 60.6876 35.99C61.0516 36.83 61.4436 37.432 61.8636 37.796C61.9756 37.88 62.0876 37.964 62.1996 38.048C62.3396 38.16 62.4936 38.23 62.6616 38.258C62.9136 38.258 63.0396 38.328 63.0396 38.468C63.0396 38.608 62.8716 38.678 62.5356 38.678ZM64.6343 31.664C64.1303 31.664 63.7663 31.454 63.5423 31.034C63.3183 30.586 63.2063 30.068 63.2063 29.48C63.2063 28.724 63.3323 27.842 63.5843 26.834C63.8643 25.826 64.2283 24.79 64.6763 23.726C65.1243 22.634 65.6283 21.64 66.1883 20.744C66.7763 19.82 67.3923 19.078 68.0363 18.518C68.6803 17.93 69.3103 17.636 69.9263 17.636C70.4863 17.636 70.9623 17.888 71.3543 18.392C71.7743 18.868 71.9843 19.414 71.9843 20.03C71.9843 20.394 71.9283 20.702 71.8163 20.954C71.7043 21.178 71.5783 21.29 71.4383 21.29C71.3263 21.29 71.2283 21.206 71.1443 21.038C70.8643 20.394 70.5563 19.932 70.2203 19.652C69.9123 19.372 69.5903 19.232 69.2543 19.232C68.6943 19.232 68.1343 19.554 67.5743 20.198C67.0423 20.814 66.6083 21.528 66.2723 22.34C65.9923 22.956 65.7263 23.698 65.4743 24.566C65.2503 25.406 65.0543 26.246 64.8863 27.086C64.7463 27.898 64.6763 28.57 64.6763 29.102C64.6763 30.054 64.9003 30.53 65.3483 30.53C65.9083 30.53 66.6223 29.914 67.4903 28.682C68.1343 27.786 68.7083 26.75 69.2123 25.574C69.7443 24.398 70.1923 23.376 70.5563 22.508C70.6963 22.228 70.8503 22.046 71.0183 21.962C71.1863 21.878 71.3403 21.836 71.4803 21.836C71.8163 21.836 72.0263 21.976 72.1103 22.256C72.2223 22.536 72.2783 22.774 72.2783 22.97C72.2783 23.698 72.2083 24.356 72.0683 24.944C71.9283 25.504 71.8583 26.19 71.8583 27.002C71.8583 27.59 71.9003 28.136 71.9843 28.64C72.0963 29.116 72.2783 29.354 72.5303 29.354C72.8383 29.354 73.2303 28.962 73.7063 28.178C73.8183 27.954 73.9863 27.842 74.2103 27.842C74.4623 27.842 74.5883 27.968 74.5883 28.22C74.5883 28.584 74.3363 28.976 73.8323 29.396C73.3283 29.788 72.8243 29.984 72.3203 29.984C71.6483 29.984 71.1723 29.704 70.8923 29.144C70.4163 28.22 70.1783 27.394 70.1783 26.666C70.1783 25.91 70.1643 25.392 70.1363 25.112C69.9963 25.448 69.7303 25.98 69.3383 26.708C68.9463 27.408 68.4843 28.15 67.9523 28.934C67.4203 29.69 66.8603 30.334 66.2723 30.866C65.6843 31.398 65.1383 31.664 64.6343 31.664Z" fill="white"/>
</svg>
